<svg width="65" height="80" xmlns="http://www.w3.org/2000/svg" style="vector-effect: non-scaling-stroke;" stroke="null">

 <g stroke="null">
  <title stroke="null">background</title>
  <rect stroke="null" fill="none" id="canvas_background" height="82" width="67" y="-1" x="-1"/>
 </g>
 <g stroke="null">
  <title stroke="null">Layer 1</title>
  <path style="vector-effect: non-scaling-stroke;" stroke="null" id="svg_1" d="m62.653,2.296c0,-1.943 -2.533,-2.296 -5.344,-2.296l-25.983,0l-25.982,0c-2.811,0 -5.344,0.353 -5.344,2.296l1.447,68.965c-0.004,-0.074 -0.026,-0.135 -0.028,-0.21c0.003,0.13 0.025,0.232 0.031,0.357l0.002,0.109c0.002,0.093 0.025,0.17 0.03,0.261c0.03,0.381 0.064,0.76 0.127,1.096c0.023,0.116 0.057,0.223 0.085,0.334c0.714,3.074 2.9,4.209 6.628,4.665c0,0 9.049,1.004 23.003,1.012c13.954,-0.008 23.003,-1.012 23.003,-1.012c3.728,-0.456 5.914,-1.591 6.628,-4.665c0.028,-0.112 0.062,-0.218 0.085,-0.334c0.063,-0.336 0.096,-0.715 0.127,-1.096c0.005,-0.091 0.028,-0.167 0.03,-0.261l0.004,-0.109c0.006,-0.125 0.028,-0.228 0.031,-0.357c-0.002,0.075 -0.024,0.137 -0.028,0.21l1.448,-68.965zm-4.842,70.453c0.006,0.549 -0.586,1.275 -1.645,1.398c0,0 -10.988,1.012 -24.583,1.012c-0.086,0 -0.426,0 -0.513,0c-13.595,0 -24.583,-1.012 -24.583,-1.012c-1.059,-0.122 -1.652,-0.849 -1.645,-1.398l-0.002,-3.405c0.084,-0.522 0.932,-0.94 1.89,-0.94c0,0 10.381,1.331 24.35,1.331c0.083,0 0.409,0 0.492,0c13.969,0 24.35,-1.331 24.35,-1.331c0.959,0 1.807,0.419 1.89,0.94l-0.001,3.405zm3.245,-57.768l-1.652,46.48c-0.008,0.412 -0.059,1.255 -0.059,1.35c0,2.447 -10.949,3.919 -19.033,3.959c0,0 -8.917,0.073 -8.986,0.073s-8.986,-0.073 -8.986,-0.073c-8.085,-0.04 -19.033,-1.512 -19.033,-3.959c0,-0.096 -0.05,-0.939 -0.059,-1.35l-1.652,-46.48l-0.461,-12.226c0.276,-1.517 2.405,-1.506 5.087,-1.52l25.103,0l25.103,0c2.682,0.014 4.811,0.002 5.087,1.52l-0.459,12.226z" fill="#000000"/>
  <path stroke="null" id="svg_2" d="m52.94094,39.06905c-6.08515,1.19443 -8.89336,-3.09898 -16.61698,-3.69409c-7.72362,-0.59511 -10.53183,2.77189 -17.5534,3.58646c-6.55811,0.76288 -14.211,-4.01275 -16.1039,-4.57092l1.22146,26.87685c0.01689,0.31127 0.10346,0.94542 0.11296,0.99923c0.51202,2.81831 10.81793,3.89773 18.78859,3.93677c0,0 5.8814,0.07281 8.34966,0.07281c2.47038,0 8.6516,-0.07281 8.6516,-0.07281c7.97066,-0.0401 18.7643,-1.50359 18.7643,-3.93677c0,-0.09496 0.04962,-0.93381 0.05806,-1.34321l0.89736,-25.48405c-1.51284,1.19338 -3.69712,3.06522 -6.56972,3.62973z" fill="#00ff00"/>
 </g>
</svg>